<svg height="512pt" viewBox="-52 0 512 512.00104" width="512pt" xmlns="http://www.w3.org/2000/svg"><path d="m124.484375 152.753906c3.023437 1.089844 12.140625 4.386719 14.109375 5.097656l34.703125 12.542969.035156 13.332031 15-.039062-.0625-23.835938-44.78125-16.183593c2.023438-5.855469.398438-1.148438 8.714844-25.242188l49.742187 17.882813c19.699219 27.007812 15.148438 20.765625 21.308594 29.214844h27.855469l12.222656-18.539063 42.742188 2.335937v22.882813h-28.289063l-.011718 83.828125 15 .003906.007812-68.828125h28.296875v-.007812h87.449219l-26.921875-111.527344-25.335938-13.144531-33.910156 7.335937 15.175781 64.832031-23.800781.023438-46.796875-2.558594v-9.222656l12.746094 1.609375c4.378906-34.664063 5.960937-47.21875 8.730468-69.117187l-.007812-.003907c3.238281-27.222656-16.277344-51.652343-43.058594-55.023437-26.007812-3.296875-49.191406 14.050781-54.625 38.273437l-45.066406-7.734375-2.539062 14.789063 45.492187 7.804687h.003906l-3.53125 27.964844c1.636719 2.113281 12.492188 16.109375 14.070313 18.144531v19.714844c-66.953125-24.066406-23.050782-8.230469-186.601563-67.351563l-12.550781 34.710938 11.875 25.324219zm215.957031-71.453125 13.71875-2.96875 14.46875 7.503907 20.84375 86.363281h-68.394531v-22.484375l35.371094-.035156zm-88.507812 55.710938-8.90625 13.507812h-12.148438c-.328125-.449219-16.472656-22.589843-16.726562-22.941406v-11.304687l37.78125 4.769531zm14.746094-29.226563c-14.082032-1.78125-4.554688-.574218-46.808594-5.914062-4.066406-5.28125-12.300782-16.003906-19.101563-24.855469l2.640625-20.941406c13.945313 2.390625 54.300782 9.3125 68.320313 11.714843zm-23.210938-92.5c18.496094 2.328125 31.921875 18.992188 30.132812 37.605469l-68.066406-11.671875c4.125-16.625 20.179688-28.183594 37.933594-25.933594zm-114.089844 123.285156-106.558594-38.523437-6.597656-14.070313 5.335938-14.761718 116.527344 42.125c-7.457032 21.613281-5.511719 15.976562-8.707032 25.230468zm0 0"/><path d="m292.765625 291.519531v-15.484375h-15.003906v11.171875h-89.167969l-.210938-83.519531-15 .039062c.152344 60.367188-.121093-47.195312.25 98.480469.097657 0-1.265624-4.851562 27.710938 101.421875l-49.035156 39.683594-44.183594 34.171875 22.457031 29.261719 27.710938 3.644531 23.96875-18.210937.144531.179687c7.207031-5.84375 4.507812-3.714844 11.808594-9.261719l-.152344-.1875 72.097656-58.445312-21.382812-78.425782h23.382812l45.867188 28.460938-19.402344 66.484375-11.214844 34.800781 12.757813 24.894532 35.128906 11.320312 15.015625-46.582031.164062.050781c2.59375-8.726562 1.570313-5.441406 4.4375-14.332031l-.164062-.050781 31.082031-104.582032zm-138.636719 203.191407-15.429687-2.027344-9.574219-12.476563 26.628906-20.589843c8.746094 10.746093 8.417969 10.339843 17.03125 20.921874zm177.492188-126.949219-59.183594-36.722657h-47.300781l23.976562 87.933594-64.523437 52.304688-17.070313-20.972656 50.875-41.171876-29.132812-106.847656 93.839843.902344 81.082032 50.050781-27.714844 93.246094-25.429688-8.195313zm.410156 93.054687-10.410156 32.304688-14.941406-4.816406-7.085938-13.832032 7.039062-21.84375c2.628907.847656 22.03125 7.101563 25.398438 8.1875zm0 0"/><path d="m214.90625 256.53125v-15.003906h15.003906v15.003906zm25.003906 0v-15.003906h15v15.003906zm0 0"/></svg>